<svg xmlns="http://www.w3.org/2000/svg" xmlns:xlink="http://www.w3.org/1999/xlink" width="382.71" height="293.77" viewBox="0 0 382.71 293.77"><defs><clipPath id="a" transform="translate(-4.62 -5.23)"><rect x="-9.8" y="-1" width="210.84" height="217.79" fill="none"/></clipPath></defs><title>sophia-logo-300px-fixed</title><g style="isolation:isolate"><path d="M180.23,105h0l2.26,2.25-.9-1A15,15,0,0,0,180.23,105Z" transform="translate(-4.62 -5.23)" fill="#97c9da"/><path d="M189.34,113a16.89,16.89,0,0,1-3.42-2.4l10.55,10.52v-7.23C194,114.06,191.28,114,189.34,113Z" transform="translate(-4.62 -5.23)" fill="#cac9ca"/><path d="M229.44,62.9c-.82.6-.43,2.1-1.19,2.61l-.07,0c-.22.74-.45,1.47-.65,2.13h-2.6a31.38,31.38,0,0,1,.23-4.44,19.59,19.59,0,0,1-5.31,1.24c-7.79.67-15.6,1-23.38,1v48.46h0c.31,0,.63,0,.94,0s.64,0,1,0,.74,0,1.1,0,.54,0,.79,0a12.13,12.13,0,0,0,1.23-.2c.18,0,.38,0,.56-.09a7.33,7.33,0,0,0,1.59-.58c3.23-1.66,5.4-4.22,7.75-6.8,1.61-1.76,3.76-3,5.67-4.42a13.18,13.18,0,0,0,2.83-2.75,14.92,14.92,0,0,0,2.28-4.81c.74-2.61.41-6.72,2.39-8.81,1.78-1.9,3.56-2.64,4.84-5.25a31,31,0,0,0,2.66-14.91C232,63.89,231.25,61.55,229.44,62.9Z" transform="translate(-4.62 -5.23)" fill="#d4d5d7"/><path d="M172.91,64.45a19,19,0,0,1-5.58-1.33c0,.9,0,1.79,0,2.8,0,.4,0,1.06,0,1.75h-3.32c0-.57,0-1.1,0-1.45,0-.82,0-1.56,0-2.28a1.61,1.61,0,0,0-.53-1c-1.82-1.35-2.57,1-2.64,2.39a31,31,0,0,0,2.66,14.91c1.28,2.61,3.06,3.35,4.85,5.25,2,2.09,1.64,6.2,2.38,8.81a15.35,15.35,0,0,0,2.28,4.81,16.22,16.22,0,0,0,4,3.62c1,.74,2.12,1.46,3.11,2.27a15,15,0,0,1,1.36,1.28l.9,1h0a38.17,38.17,0,0,0,3.43,3.42,16.89,16.89,0,0,0,3.42,2.4c1.94,1,4.63,1,7.13.89V65.47h0Q184.7,65.47,172.91,64.45Z" transform="translate(-4.62 -5.23)" fill="#fff"/><path d="M224.93,67.67h2.6c.2-.66.43-1.39.65-2.13.53-1.74,1-3.52,1.35-4.73a18.39,18.39,0,0,1-4.37,2.42A31.38,31.38,0,0,0,224.93,67.67Z" transform="translate(-4.62 -5.23)" fill="#808484"/><path d="M230.76,50.3h0c-1.14.14-2.28.3-3.42.43C228.48,50.59,229.62,50.43,230.76,50.3Z" transform="translate(-4.62 -5.23)" fill="#808484"/><path d="M167.33,63.12a18.14,18.14,0,0,1-3.54-1.95,18.62,18.62,0,0,1,.3,2.77c0,.72,0,1.46,0,2.28,0,.35,0,.88,0,1.45h3.32c0-.69,0-1.35,0-1.75C167.31,64.91,167.31,64,167.33,63.12Z" transform="translate(-4.62 -5.23)" fill="#8b8f8f"/><path d="M162.23,50.3c1.12.14,2.25.3,3.37.42-1.12-.12-2.25-.29-3.37-.42Z" transform="translate(-4.62 -5.23)" fill="#8b8f8f"/><path d="M185.92,110.64a38.17,38.17,0,0,1-3.43-3.42L180.23,105h0c-1-.81-2.06-1.53-3.11-2.27v6a23.4,23.4,0,0,1-1.11,7.14c-.95,3-2.14,6.78-2,6.74l.16.3a28.43,28.43,0,0,0,22.27,11.47h.15l-.13-13.22Z" transform="translate(-4.62 -5.23)" fill="#d4d5d7"/><path d="M174.18,122.91h0l0,0a1.37,1.37,0,0,1-.19-.23,6.1,6.1,0,0,0-.88.26c-1.48.42-3.92,1.17-6.93,2.08v40.31h-16V129.81c-12,3.61-24,7.22-24.36,7.61-13.48,16.78-18.24,53.4-18.24,79.37h34.13V169.36h54.83l0-27v-8h-.06A28.43,28.43,0,0,1,174.18,122.91Z" transform="translate(-4.62 -5.23)" fill="#456b80"/><path d="M218.74,13.14l0-.06-.31-.38C218.62,12.94,218.69,13.07,218.74,13.14Z" transform="translate(-4.62 -5.23)" fill="#d99c24"/><path d="M220.83,17.09c-1-.71-2-1.36-3.06-2l-.31.58a42.91,42.91,0,0,1,3.3,2.89c-5.35,8.29-10.29,18.62-14.63,27.18,5.32-15.48,9.78-26.56,11.52-30.73l.4.22-.08-1,.44-1a3.07,3.07,0,0,1,.06-.51c-1.39-1.37-7.4-6.66-22-7.47h0V52.42c3.42,0,6.84-.07,10.27-.19,1.14,0,2.27-.13,3.41-.19,2.29-.11,4.59-.22,6.89-.38,1.36-.1,2.73-.25,4.09-.37,2.07-.18,4.14-.35,6.21-.57,1.14-.13,2.28-.29,3.42-.43l1-.12c1.72-.22,3.45-.42,5.19-.67,0-.09,0-.18,0-.27A37.23,37.23,0,0,0,220.83,17.09Z" transform="translate(-4.62 -5.23)" fill="#d99c24"/><path d="M238.31,49.33,237,49.5c-1.74.25-3.47.45-5.19.67l-1,.13c-1.14.13-2.28.29-3.42.42-2.07.22-4.14.39-6.21.57-1.36.12-2.73.27-4.09.37-2.3.16-4.6.27-6.89.38-1.14.06-2.27.14-3.41.19-3.43.12-6.85.19-10.27.19v6.26q13.11,0,26.23-.84a22.24,22.24,0,0,0,10.48-3c-.31.36-.61.73-.92,1.08a12.9,12.9,0,0,1-4.21,3,19.66,19.66,0,0,1-6.64,1.81c-8.31.77-16.64,1.15-24.94,1.15v3.58h0c7.78,0,15.59-.33,23.38-1a19.59,19.59,0,0,0,5.31-1.24,18.39,18.39,0,0,0,4.37-2.42c.25-.18.53-.34.77-.54,1.48-.17,3-.31,4.44-.49,3.09-.4,5.38-2.91,5.07-5.54-.15-1.38-.31-2.77-.47-4.17Z" transform="translate(-4.62 -5.23)" fill="#d99c24"/><path d="M182.8,52c-2.3-.11-4.6-.22-6.9-.38-1.37-.1-2.73-.25-4.1-.37-2.06-.18-4.13-.35-6.2-.57-1.12-.12-2.25-.28-3.37-.42l-1-.13c-1.74-.21-3.47-.42-5.21-.66-.46-.07-.92-.11-1.39-.18l-1,.74c-.16,1.4-.32,2.79-.47,4.17-.3,2.63,2,5.14,5.07,5.54,1.44.18,2.88.32,4.31.48.4.33.86.61,1.29.91a18.14,18.14,0,0,0,3.54,1.95,19,19,0,0,0,5.58,1.33q11.79,1,23.56,1V61.89q-12.58,0-25.17-1.17a19.71,19.71,0,0,1-6.64-1.79,12.67,12.67,0,0,1-4.41-3.31l-.49-.62A23,23,0,0,0,170,57.82q13.23.87,26.47.86V52.42c-3.43,0-6.86-.07-10.28-.19C185.06,52.18,183.93,52.1,182.8,52Z" transform="translate(-4.62 -5.23)" fill="#d99c24"/><path d="M217.32,110.22l-.25-8.4c-1.91,1.44-4.06,2.66-5.67,4.42-2.35,2.58-4.52,5.14-7.75,6.8a7.33,7.33,0,0,1-1.59.58c-.18,0-.38.06-.56.09a12.13,12.13,0,0,1-1.23.2c-.25,0-.52,0-.79,0s-.73,0-1.1,0-.64,0-1,0-.63,0-.94,0h0v7.23L208.38,132a28.29,28.29,0,0,0,11.72-9.38v0c.18,0-1.4-5.71-2.24-8.72A15.15,15.15,0,0,1,217.32,110.22Z" transform="translate(-4.62 -5.23)" fill="#b3b3b2"/><path d="M196.6,134.38h.69c.7,0,1.4,0,2.1-.11h0a28.1,28.1,0,0,0,9-2.25h0l-11.91-10.85Z" transform="translate(-4.62 -5.23)" fill="#cac9ca"/><path d="M244.45,130v35.33h-16V125.11l-7.38-2.21-.93-.29,0,0A28.29,28.29,0,0,1,208.38,132h0a28.1,28.1,0,0,1-9,2.25h0c-.7.06-1.4.11-2.1.11h-.78v8l0,27h56.44v47.43H287c0-29.22-3.51-65.45-18.65-79.37C268,137.05,256.3,133.52,244.45,130Z" transform="translate(-4.62 -5.23)" fill="#355a71"/><path d="M196.47,58.68v3.21c8.3,0,16.63-.38,24.94-1.15a19.66,19.66,0,0,0,6.64-1.81,12.9,12.9,0,0,0,4.21-3c.31-.35.61-.72.92-1.08a22.24,22.24,0,0,1-10.48,3Q209.59,58.68,196.47,58.68Z" transform="translate(-4.62 -5.23)" fill="#e0a430"/><path d="M159.76,55l.49.62a12.67,12.67,0,0,0,4.41,3.31,19.71,19.71,0,0,0,6.64,1.79q12.58,1.17,25.17,1.17V58.68q-13.25,0-26.47-.86A23,23,0,0,1,159.76,55Z" transform="translate(-4.62 -5.23)" fill="#e5ab40"/><path d="M175,14.25c-.28-.65-.46-1-.46-1s0-.19-.05-.46a3.53,3.53,0,0,1-.24.39l0,.07,1,1.88.31.59a43.05,43.05,0,0,0-3.31,2.89c5.4,8.29,10.3,18.62,14.67,27.18A316.89,316.89,0,0,0,175.31,15Z" transform="translate(-4.62 -5.23)" fill="#db8f1b"/><path d="M217.77,15.1l1-1.89,0-.07c-.05-.07-.12-.2-.27-.44a3.07,3.07,0,0,0-.06.51l-.44,1-.32.79c-1.74,4.17-6.2,15.25-11.52,30.73,4.34-8.56,9.28-18.89,14.63-27.18a42.91,42.91,0,0,0-3.3-2.89Z" transform="translate(-4.62 -5.23)" fill="#db8f1b"/><path d="M141.65,169.36h0v47.43h10V193.08h35.19v23.71h9.85l-.31-47.43Zm22.59,5.84H151.78v-3.57h12.46Z" transform="translate(-4.62 -5.23)" fill="#e5ab40"/><path d="M196.48,169.36h-.1l.31,47.43h56.23V169.36H196.48Zm33.83,2.27h12.45v3.57H230.31Z" transform="translate(-4.62 -5.23)" fill="#d99c24"/><path d="M150.12,129.81v35.48h16V125c-1,.28-2.08.62-3.22,1C159.06,127.13,154.59,128.46,150.12,129.81Zm14.12,33H151.78v-3.57h12.46Z" transform="translate(-4.62 -5.23)" fill="#e5ab40"/><path d="M228.43,125.11v40.18h16V130l-13.27-4Zm14.33,37.69H230.31v-3.57h12.45Z" transform="translate(-4.62 -5.23)" fill="#d99c24"/><rect x="147.16" y="166.4" width="12.45" height="3.57" fill="#456b80"/><rect x="147.16" y="154" width="12.45" height="3.57" fill="#456b80"/><rect x="225.69" y="166.4" width="12.45" height="3.57" fill="#355a71"/><rect x="225.69" y="154" width="12.45" height="3.57" fill="#355a71"/><rect x="145.5" y="187.85" width="36.72" height="23.71" fill="#d99c24"/><path d="M196.46,5.23c-14.68.81-20.69,6.17-22,7.5a2.45,2.45,0,0,1-.29.35l0,.06a3.53,3.53,0,0,0,.24-.39c0,.27.05.46.05.46s.18.39.46,1l0,.85s.4-.13.36-.1a316.89,316.89,0,0,1,11.52,30.75c-4.37-8.56-9.27-18.89-14.67-27.18a43.05,43.05,0,0,1,3.31-2.89l-.31-.59c-1,.64-2.09,1.28-3.06,2C161.62,24.5,155.37,36.37,156,49.23a2.53,2.53,0,0,0,0,.28c1.74.24,3.47.45,5.21.66l1,.13c1.12.13,2.25.3,3.37.42,2.07.22,4.14.39,6.2.57,1.37.12,2.73.27,4.1.37,2.3.16,4.6.27,6.9.38,1.13.06,2.26.14,3.39.19,3.42.12,6.85.19,10.28.19L226,50.72,196.47,48.8Z" transform="translate(-4.62 -5.23)" fill="#e5ab40"/><path d="M280.33,105h0l2.26,2.25-.9-1A15,15,0,0,0,280.33,105Z" transform="translate(-4.62 -5.23)" fill="#97c9da"/><path d="M289.44,113a17.17,17.17,0,0,1-3.42-2.4l10.55,10.52v-7.23C294.08,114.06,291.38,114,289.44,113Z" transform="translate(-4.62 -5.23)" fill="#cac9ca"/><path d="M329.54,62.9c-.82.6-.42,2.1-1.19,2.61l-.07,0c-.22.74-.44,1.47-.65,2.13H325a28.66,28.66,0,0,1,.23-4.44A19.66,19.66,0,0,1,320,64.47q-11.68,1-23.38,1v48.46h0c.31,0,.63,0,.94,0l1,0c.38,0,.74,0,1.1,0s.54,0,.79,0a11.69,11.69,0,0,0,1.23-.2c.18,0,.38,0,.56-.09a7.14,7.14,0,0,0,1.59-.58c3.23-1.66,5.4-4.22,7.75-6.8,1.61-1.76,3.76-3,5.67-4.42A13.18,13.18,0,0,0,320,99.07a15.16,15.16,0,0,0,2.29-4.81c.73-2.61.41-6.72,2.38-8.81,1.78-1.9,3.56-2.64,4.84-5.25a30.9,30.9,0,0,0,2.66-14.91C332.1,63.89,331.36,61.55,329.54,62.9Z" transform="translate(-4.62 -5.23)" fill="#d4d5d7"/><path d="M273,64.45a19,19,0,0,1-5.59-1.33c0,.9,0,1.79,0,2.8a15.89,15.89,0,0,1,0,1.75h-3.32c0-.57,0-1.1,0-1.45,0-.82,0-1.56,0-2.28a1.62,1.62,0,0,0-.54-1c-1.82-1.35-2.57,1-2.64,2.39a31.14,31.14,0,0,0,2.66,14.91c1.28,2.61,3.06,3.35,4.85,5.25,2,2.09,1.64,6.2,2.38,8.81a15.35,15.35,0,0,0,2.28,4.81,16.22,16.22,0,0,0,4,3.62c1,.74,2.12,1.46,3.11,2.27a15,15,0,0,1,1.36,1.28l.9,1h0a41,41,0,0,0,3.43,3.42,17.17,17.17,0,0,0,3.42,2.4c1.94,1,4.64,1,7.13.89V65.47h0Q284.8,65.47,273,64.45Z" transform="translate(-4.62 -5.23)" fill="#fff"/><path d="M325,67.67h2.59c.21-.66.43-1.39.65-2.13.53-1.74,1.05-3.52,1.35-4.73a18.52,18.52,0,0,1-4.36,2.42A28.66,28.66,0,0,0,325,67.67Z" transform="translate(-4.62 -5.23)" fill="#808484"/><path d="M330.86,50.3h0c-1.14.14-2.28.3-3.42.43C328.58,50.59,329.72,50.43,330.86,50.3Z" transform="translate(-4.62 -5.23)" fill="#808484"/><path d="M267.43,63.12a18.06,18.06,0,0,1-3.53-1.95,20,20,0,0,1,.3,2.77c0,.72,0,1.46,0,2.28,0,.35,0,.88,0,1.45h3.32a15.89,15.89,0,0,0,0-1.75C267.41,64.91,267.41,64,267.43,63.12Z" transform="translate(-4.62 -5.23)" fill="#8b8f8f"/><path d="M262.33,50.3c1.13.14,2.25.3,3.37.42-1.12-.12-2.24-.29-3.37-.42Z" transform="translate(-4.62 -5.23)" fill="#8b8f8f"/><path d="M286,110.64a41,41,0,0,1-3.43-3.42L280.33,105h0c-1-.81-2.06-1.53-3.11-2.27v6a23.4,23.4,0,0,1-1.11,7.14c-.95,3-2.14,6.78-2,6.74l.16.3a28.45,28.45,0,0,0,22.28,11.47h.14l-.13-13.22Z" transform="translate(-4.62 -5.23)" fill="#d4d5d7"/><path d="M274.28,122.91h0l0,0a1.37,1.37,0,0,1-.19-.23,6.1,6.1,0,0,0-.88.26c-1.48.42-3.92,1.17-6.93,2.08v40.31h-16V129.81c-12,3.61-24,7.22-24.36,7.61-13.48,16.78-18.23,53.4-18.23,79.37h34.12V169.36h54.83l0-27v-8h-.05A28.45,28.45,0,0,1,274.28,122.91Z" transform="translate(-4.62 -5.23)" fill="#456b80"/><path d="M318.84,13.14l0-.06-.31-.38Z" transform="translate(-4.62 -5.23)" fill="#d99c24"/><path d="M320.93,17.09c-1-.71-2-1.36-3.06-2l-.31.58a43.05,43.05,0,0,1,3.31,2.89c-5.36,8.29-10.3,18.62-14.64,27.18C311.55,30.27,316,19.19,317.75,15l.4.22-.07-1,.43-1s0-.19.06-.51c-1.38-1.37-7.4-6.66-22-7.47h0V52.42c3.42,0,6.85-.07,10.27-.19,1.14,0,2.28-.13,3.41-.19,2.3-.11,4.59-.22,6.89-.38,1.36-.1,2.73-.25,4.09-.37,2.07-.18,4.14-.35,6.21-.57,1.14-.13,2.28-.29,3.42-.43l1-.12c1.73-.22,3.46-.42,5.19-.67,0-.09,0-.18,0-.27A37.23,37.23,0,0,0,320.93,17.09Z" transform="translate(-4.62 -5.23)" fill="#d99c24"/><path d="M338.41,49.33l-1.36.17c-1.73.25-3.46.45-5.19.67l-1,.13c-1.14.13-2.28.29-3.42.42-2.07.22-4.14.39-6.21.57-1.36.12-2.73.27-4.09.37-2.3.16-4.59.27-6.89.38-1.13.06-2.27.14-3.41.19-3.42.12-6.85.19-10.27.19v6.26q13.11,0,26.24-.84a22.24,22.24,0,0,0,10.47-3c-.31.36-.61.73-.92,1.08a12.9,12.9,0,0,1-4.21,3,19.67,19.67,0,0,1-6.63,1.81Q309,61.9,296.57,61.89v3.58h0q11.69,0,23.38-1a19.66,19.66,0,0,0,5.32-1.24,18.52,18.52,0,0,0,4.36-2.42c.26-.18.53-.34.78-.54,1.47-.17,2.95-.31,4.43-.49,3.09-.4,5.38-2.91,5.08-5.54q-.24-2.07-.48-4.17Z" transform="translate(-4.62 -5.23)" fill="#d99c24"/><path d="M282.9,52c-2.29-.11-4.59-.22-6.9-.38-1.36-.1-2.73-.25-4.1-.37-2.06-.18-4.13-.35-6.2-.57-1.12-.12-2.24-.28-3.37-.42l-1-.13c-1.73-.21-3.47-.42-5.21-.66-.46-.07-.92-.11-1.39-.18l-1,.74c-.16,1.4-.31,2.79-.47,4.17-.3,2.63,2,5.14,5.07,5.54,1.44.18,2.88.32,4.31.48.4.33.86.61,1.3.91a18.06,18.06,0,0,0,3.53,1.95A19,19,0,0,0,273,64.45q11.78,1,23.55,1V61.89q-12.57,0-25.17-1.17a19.71,19.71,0,0,1-6.64-1.79,12.53,12.53,0,0,1-4.4-3.31c-.17-.2-.33-.41-.5-.62a23,23,0,0,0,10.24,2.82q13.23.87,26.47.86V52.42c-3.43,0-6.85-.07-10.28-.19C285.16,52.18,284,52.1,282.9,52Z" transform="translate(-4.62 -5.23)" fill="#d99c24"/><path d="M317.42,110.22l-.25-8.4c-1.91,1.44-4.06,2.66-5.67,4.42-2.35,2.58-4.52,5.14-7.75,6.8a7.14,7.14,0,0,1-1.59.58c-.18,0-.38.06-.56.09a11.69,11.69,0,0,1-1.23.2c-.25,0-.52,0-.79,0s-.72,0-1.1,0l-1,0c-.31,0-.63,0-.94,0h0v7.23L308.48,132a28.38,28.38,0,0,0,11.73-9.38v0c.18,0-1.41-5.71-2.25-8.72A15.66,15.66,0,0,1,317.42,110.22Z" transform="translate(-4.62 -5.23)" fill="#b3b3b2"/><path d="M296.7,134.38h.69c.7,0,1.4,0,2.1-.11h0a28,28,0,0,0,9-2.25h0l-11.91-10.85Z" transform="translate(-4.62 -5.23)" fill="#cac9ca"/><path d="M344.55,130v35.33h-16V125.11l-7.38-2.21c-.38-.13-.7-.21-.93-.29v0A28.38,28.38,0,0,1,308.48,132h0a28,28,0,0,1-9,2.25h0c-.7.06-1.4.11-2.1.11h-.78v8l0,27H353v47.43h34.1c0-29.22-3.5-65.45-18.64-79.37C368.06,137.05,356.4,133.52,344.55,130Z" transform="translate(-4.62 -5.23)" fill="#355a71"/><path d="M296.57,58.68v3.21q12.45,0,24.95-1.15a19.67,19.67,0,0,0,6.63-1.81,12.9,12.9,0,0,0,4.21-3c.31-.35.61-.72.92-1.08a22.24,22.24,0,0,1-10.47,3Q309.69,58.68,296.57,58.68Z" transform="translate(-4.62 -5.23)" fill="#e0a430"/><path d="M259.86,55c.17.21.33.42.5.62a12.53,12.53,0,0,0,4.4,3.31,19.71,19.71,0,0,0,6.64,1.79q12.59,1.17,25.17,1.17V58.68q-13.23,0-26.47-.86A23,23,0,0,1,259.86,55Z" transform="translate(-4.62 -5.23)" fill="#e5ab40"/><path d="M275.09,14.25l-.47-1a2.8,2.8,0,0,0-.05-.46,3.53,3.53,0,0,1-.24.39.32.32,0,0,1,0,.07l1,1.88.3.59a42.91,42.91,0,0,0-3.3,2.89c5.39,8.29,10.29,18.62,14.67,27.18A319,319,0,0,0,275.41,15C275.29,14.71,275.18,14.48,275.09,14.25Z" transform="translate(-4.62 -5.23)" fill="#db8f1b"/><path d="M317.87,15.1l1-1.89,0-.07-.27-.44c-.05.32-.06.51-.06.51l-.43,1c-.1.23-.21.49-.33.79-1.73,4.17-6.2,15.25-11.52,30.73,4.34-8.56,9.28-18.89,14.64-27.18a43.05,43.05,0,0,0-3.31-2.89Z" transform="translate(-4.62 -5.23)" fill="#db8f1b"/><path d="M241.76,169.36h0v47.43h10V193.08H287v23.71h9.84l-.31-47.43Zm22.58,5.84H251.88v-3.57h12.46Z" transform="translate(-4.62 -5.23)" fill="#e5ac40"/><path d="M296.58,169.36h-.1l.31,47.43H353V169.36H296.58Zm33.84,2.27h12.45v3.57H330.42Z" transform="translate(-4.62 -5.23)" fill="#d99c24"/><path d="M250.22,129.81v35.48h16V125c-1,.28-2.08.62-3.22,1C259.16,127.13,254.69,128.46,250.22,129.81Zm14.12,33H251.88v-3.57h12.46Z" transform="translate(-4.62 -5.23)" fill="#e5ab40"/><path d="M328.53,125.11v40.18h16V130l-13.27-4Zm14.34,37.69H330.42v-3.57h12.45Z" transform="translate(-4.62 -5.23)" fill="#d99c24"/><rect x="247.26" y="166.4" width="12.45" height="3.57" fill="#456b80"/><rect x="247.26" y="154" width="12.45" height="3.57" fill="#456b80"/><rect x="325.79" y="166.4" width="12.45" height="3.57" fill="#355a71"/><rect x="325.79" y="154" width="12.45" height="3.57" fill="#355a71"/><rect x="245.6" y="187.85" width="36.72" height="23.71" fill="#d99c24"/><path d="M296.56,5.23c-14.68.81-20.68,6.17-22,7.5a3.16,3.16,0,0,1-.28.35l0,.06a3.53,3.53,0,0,0,.24-.39,2.8,2.8,0,0,1,.05.46l.47,1,0,.85s.4-.13.36-.1a319,319,0,0,1,11.53,30.75c-4.38-8.56-9.28-18.89-14.67-27.18a42.91,42.91,0,0,1,3.3-2.89l-.3-.59c-1,.64-2.1,1.28-3.07,2-10.48,7.41-16.73,19.28-16.1,32.14,0,.1,0,.19,0,.28,1.74.24,3.48.45,5.21.66l1,.13c1.13.13,2.25.3,3.37.42,2.07.22,4.14.39,6.2.57,1.37.12,2.74.27,4.1.37,2.31.16,4.61.27,6.9.38,1.14.06,2.26.14,3.39.19,3.43.12,6.85.19,10.28.19l29.53-1.7L296.57,48.8Z" transform="translate(-4.62 -5.23)" fill="#e5ab40"/><path d="M330.86,50.3h0c-1.14.14-2.28.3-3.42.43C328.58,50.59,329.72,50.43,330.86,50.3Z" transform="translate(-4.62 -5.23)" fill="#808484"/><path d="M262.33,50.3c1.13.14,2.25.3,3.37.42-1.12-.12-2.24-.29-3.37-.42Z" transform="translate(-4.62 -5.23)" fill="#8b8f8f"/><path d="M318.84,13.14l0-.06-.31-.38Z" transform="translate(-4.62 -5.23)" fill="#d99c24"/><path d="M320.93,17.09c-1-.71-2-1.36-3.06-2l-.31.58a43.05,43.05,0,0,1,3.31,2.89c-5.36,8.29-10.3,18.62-14.64,27.18C311.55,30.27,316,19.19,317.75,15l.4.22-.07-1,.43-1s0-.19.06-.51c-1.38-1.37-7.4-6.66-22-7.47h0V52.42c3.42,0,6.85-.07,10.27-.19,1.14,0,2.28-.13,3.41-.19,2.3-.11,4.59-.22,6.89-.38,1.36-.1,2.73-.25,4.09-.37,2.07-.18,4.14-.35,6.21-.57,1.14-.13,2.28-.29,3.42-.43l1-.12c1.73-.22,3.46-.42,5.19-.67,0-.09,0-.18,0-.27A37.23,37.23,0,0,0,320.93,17.09Z" transform="translate(-4.62 -5.23)" fill="#d99c24"/><path d="M338.41,49.33l-1.36.17c-1.73.25-3.46.45-5.19.67l-1,.13c-1.14.13-2.28.29-3.42.42-2.07.22-4.14.39-6.21.57-1.36.12-2.73.27-4.09.37-2.3.16-4.59.27-6.89.38-1.13.06-2.27.14-3.41.19-3.42.12-6.85.19-10.27.19v6.26q13.11,0,26.24-.84a22.24,22.24,0,0,0,10.47-3c-.31.36-.61.73-.92,1.08a12.9,12.9,0,0,1-4.21,3,19.67,19.67,0,0,1-6.63,1.81Q309,61.9,296.57,61.89v3.58h0q11.69,0,23.38-1a19.66,19.66,0,0,0,5.32-1.24,18.52,18.52,0,0,0,4.36-2.42c.26-.18.53-.34.78-.54,1.47-.17,2.95-.31,4.43-.49,3.09-.4,5.38-2.91,5.08-5.54q-.24-2.07-.48-4.17Z" transform="translate(-4.62 -5.23)" fill="#d99c24"/><path d="M282.9,52c-2.29-.11-4.59-.22-6.9-.38-1.36-.1-2.73-.25-4.1-.37-2.06-.18-4.13-.35-6.2-.57-1.12-.12-2.24-.28-3.37-.42l-1-.13c-1.73-.21-3.47-.42-5.21-.66-.46-.07-.92-.11-1.39-.18l-1,.74c-.16,1.4-.31,2.79-.47,4.17-.3,2.63,2,5.14,5.07,5.54,1.44.18,2.88.32,4.31.48.4.33.86.61,1.3.91a18.06,18.06,0,0,0,3.53,1.95A19,19,0,0,0,273,64.45q11.78,1,23.55,1V61.89q-12.57,0-25.17-1.17a19.71,19.71,0,0,1-6.64-1.79,12.53,12.53,0,0,1-4.4-3.31c-.17-.2-.33-.41-.5-.62a23,23,0,0,0,10.24,2.82q13.23.87,26.47.86V52.42c-3.43,0-6.85-.07-10.28-.19C285.16,52.18,284,52.1,282.9,52Z" transform="translate(-4.62 -5.23)" fill="#d99c24"/><path d="M275.09,14.25l-.47-1a2.8,2.8,0,0,0-.05-.46,3.53,3.53,0,0,1-.24.39.32.32,0,0,1,0,.07l1,1.88.3.59a42.91,42.91,0,0,0-3.3,2.89c5.39,8.29,10.29,18.62,14.67,27.18A319,319,0,0,0,275.41,15C275.29,14.71,275.18,14.48,275.09,14.25Z" transform="translate(-4.62 -5.23)" fill="#db8f1b"/><path d="M317.87,15.1l1-1.89,0-.07-.27-.44c-.05.32-.06.51-.06.51l-.43,1c-.1.23-.21.49-.33.79-1.73,4.17-6.2,15.25-11.52,30.73,4.34-8.56,9.28-18.89,14.64-27.18a43.05,43.05,0,0,0-3.31-2.89Z" transform="translate(-4.62 -5.23)" fill="#db8f1b"/><path d="M296.56,5.23c-14.68.81-20.68,6.17-22,7.5a3.16,3.16,0,0,1-.28.35l0,.06a3.53,3.53,0,0,0,.24-.39,2.8,2.8,0,0,1,.05.46l.47,1,0,.85s.4-.13.36-.1a319,319,0,0,1,11.53,30.75c-4.38-8.56-9.28-18.89-14.67-27.18a42.91,42.91,0,0,1,3.3-2.89l-.3-.59c-1,.64-2.1,1.28-3.07,2-10.48,7.41-16.73,19.28-16.1,32.14,0,.1,0,.19,0,.28,1.74.24,3.48.45,5.21.66l1,.13c1.13.13,2.25.3,3.37.42,2.07.22,4.14.39,6.2.57,1.37.12,2.74.27,4.1.37,2.31.16,4.61.27,6.9.38,1.14.06,2.26.14,3.39.19,3.43.12,6.85.19,10.28.19l29.53-1.7L296.57,48.8Z" transform="translate(-4.62 -5.23)" fill="#e5ab40"/><path d="M39.19,275.64v-7.39H5.58V222.37h57v19.11H28.94v7.39h33.6v45.87h-57v-19.1Z" transform="translate(-4.62 -5.23)" fill="#355a71"/><path d="M229.12,222.43v51.73H197.38V295H173.69V222.43Zm-31.46,34.24h7.49V239.55h-7.49Z" transform="translate(-4.62 -5.23)" fill="#365a71"/><path d="M258.54,222.43v26.28h12.58V222.43h23.14V295H271.12V268.7H258.54V295H235.41V222.43Z" transform="translate(-4.62 -5.23)" fill="#355a71"/><path d="M324.51,222.43V295H301.65V222.43Z" transform="translate(-4.62 -5.23)" fill="#355a71"/><path d="M387.33,222.43V295H363.65V275.55h-8V295H331.91V222.43Zm-31.46,35.44h7.5V239.55h-7.5Z" transform="translate(-4.62 -5.23)" fill="#355a71"/><path d="M145.29,231a32,32,0,0,0-3.25-3L148,218l-11.57-6.86-6,10.08a33.44,33.44,0,0,0-7.69-1.73l-1.08-11.71L108.23,209l1.08,11.78a34.07,34.07,0,0,0-7.23,3.07L94.32,215,84.2,223.85,92,232.71a33.75,33.75,0,0,0-4,6.75l-11.51-2.61L73.5,250l11.44,2.59a35.3,35.3,0,0,0,.68,7.86l-10.74,4.62L80.2,277.4l10.6-4.55a34.68,34.68,0,0,0,2.59,3.62A34.15,34.15,0,0,0,96,278.94l-5.86,9.84,11.56,6.87,5.75-9.67a34.86,34.86,0,0,0,8,1.92l1,11.1,13.4-1.25-1-11a34.13,34.13,0,0,0,7.71-3.19l7.19,8.2,10.12-8.87-7.2-8.2a34.59,34.59,0,0,0,4.19-7.24l10.76,2.44,3-13.13-10.89-2.46a33.6,33.6,0,0,0-.86-8.16l10.38-4.45-5.31-12.37-10.55,4.54A31,31,0,0,0,145.29,231Zm-13.15,37.33a19.83,19.83,0,1,1,1.84-28A19.82,19.82,0,0,1,132.14,268.29Z" transform="translate(-4.62 -5.23)" fill="#355a71"/><path d="M112,259.6a9.44,9.44,0,1,1,13.32.88A9.45,9.45,0,0,1,112,259.6Z" transform="translate(-4.62 -5.23)" fill="#355a71"/><g clip-path="url(#a)"><path d="M30,127c-10.77,0-19.49,7.78-19.49,17.37S19.21,161.7,30,161.7s19.48-7.78,19.48-17.37S40.74,127,30,127Z" transform="translate(-4.62 -5.23)" fill="#515c61"/><ellipse cx="154.19" cy="139.27" rx="19.49" ry="17.37" fill="#515c61"/><rect x="91.99" y="91.96" width="16.32" height="34.66" fill="#515c61"/><rect x="75.67" y="91.96" width="16.32" height="34.66" fill="#2d3233"/><path d="M38.31,142.33c0,1.25-5.25,21.74-5.25,21.74l27.48,76.45a7.93,7.93,0,0,0,7.59,4.94H96.62V124.77L33,130.57S38.46,133.87,38.31,142.33Z" transform="translate(-4.62 -5.23)" fill="#cddad8"/><path d="M96.62,124.77V245.46h28.23a7.74,7.74,0,0,0,7.39-4.79l27.93-76.6s-6-15.31-5.86-21.72c.13-8.45,5.39-11.78,5.39-11.78Z" transform="translate(-4.62 -5.23)" fill="#e5ece9"/><path d="M20.09,127.78c-8.61.41-15.57,7.06-15.47,14.78l1.06,78c.11,7.72,7.24,13.7,15.85,13.3S37.1,226.78,37,219.06l-1.06-78C35.84,133.36,28.7,127.38,20.09,127.78Z" transform="translate(-4.62 -5.23)" fill="#ccd8d7"/><path d="M187.9,142.66c0-7.73-7.13-14.25-15.74-14.49s-15.64,5.87-15.6,13.6l.4,78c0,7.72,7.12,14.24,15.74,14.48s15.64-5.87,15.6-13.59Z" transform="translate(-4.62 -5.23)" fill="#e5ece9"/><path d="M148.87,136.34l-8-.66c-3.79.4-8.24,3.65-9.25,6.74l-16.33,90.36c-1,3.09,1,6.35,4.46,7.24s7.12-.89,8.13-4l25.56-90.51C154.45,142.45,152.34,137.24,148.87,136.34Z" transform="translate(-4.62 -5.23)" fill="#f2f2f2" style="mix-blend-mode:soft-light"/><path d="M179.41,139.93a3.42,3.42,0,0,0-3.68,3.26l1.06,74.37a3.71,3.71,0,0,0,3.76,3.42,3.42,3.42,0,0,0,3.68-3.26l-1.06-74.38A3.7,3.7,0,0,0,179.41,139.93Z" transform="translate(-4.62 -5.23)" fill="#f2f2f2" style="mix-blend-mode:soft-light"/><path d="M96.62,26.07v84.2c9.56.13,26-3,26-3s10.26-45.56,10.62-53.88C133.86,39,116.93,35.06,96.62,26.07Z" transform="translate(-4.62 -5.23)" fill="#e5ece9"/><path d="M96.58,26.07v84.2c-9.56.13-26-3-26-3S60.33,61.71,60,53.39C59.34,39,76.27,35.06,96.58,26.07Z" transform="translate(-4.62 -5.23)" fill="#828282"/><polygon points="61.52 41.03 59.27 45.32 62.95 50.93 92.7 54.85 115.41 50.54 127.56 47.57 127.27 42.2 108.49 45.48 92.7 45.47 61.52 41.03" fill="#e5ab40"/><path d="M116.4,16.61l0-.06-.28-.34C116.3,16.42,116.36,16.54,116.4,16.61Z" transform="translate(-4.62 -5.23)" fill="#d99c24"/><path d="M117.59,12.43l0-.06s-.09-.12-.28-.34C117.49,12.25,117.56,12.37,117.59,12.43Z" transform="translate(-4.62 -5.23)" fill="#d99c24"/><path d="M119.5,16c-.88-.64-1.83-1.23-2.78-1.81l-.29.53a37.4,37.4,0,0,1,3,2.64c-4.88,7.54-9.37,17-13.32,24.74C111,28,115,17.94,116.6,14.14l.37.2-.07-.91.39-.94s0-.16.06-.46c-1.26-1.25-6.73-6.07-20-6.8h0v43q4.67,0,9.35-.17c1,0,2.07-.12,3.1-.17,2.09-.1,4.18-.2,6.28-.35,1.24-.09,2.48-.22,3.72-.33,1.89-.17,3.77-.32,5.65-.53,1-.11,2.08-.26,3.12-.38l.91-.12c1.57-.19,3.15-.38,4.72-.6a2.11,2.11,0,0,0,0-.25A33.93,33.93,0,0,0,119.5,16Z" transform="translate(-4.62 -5.23)" fill="#d99c24"/><path d="M135.41,45.38l-1.24.16c-1.57.22-3.15.41-4.72.6l-.91.12c-1,.13-2.08.27-3.12.38-1.88.21-3.76.36-5.65.53-1.24.11-2.48.24-3.72.33-2.1.15-4.19.25-6.28.35-1,0-2.06.13-3.1.17q-4.68.16-9.35.17v5.7q11.94,0,23.89-.76a20.3,20.3,0,0,0,9.54-2.76l-.84,1a11.85,11.85,0,0,1-3.84,2.76,17.84,17.84,0,0,1-6,1.65q-11.36,1-22.71,1v3.26h0q10.64,0,21.29-.91A18.18,18.18,0,0,0,123.45,58a17,17,0,0,0,4-2.2c.23-.17.49-.31.71-.49,1.34-.16,2.69-.29,4-.46,2.82-.36,4.9-2.64,4.63-5-.15-1.26-.29-2.52-.44-3.79Z" transform="translate(-4.62 -5.23)" fill="#d99c24"/><path d="M84.88,47.85c-2.1-.1-4.19-.2-6.29-.35-1.24-.09-2.48-.22-3.73-.33-1.88-.17-3.76-.32-5.64-.53-1-.11-2-.25-3.07-.37l-.92-.12c-1.58-.19-3.16-.39-4.75-.61l-1.26-.16-.94.68c-.14,1.27-.29,2.53-.43,3.79-.27,2.4,1.81,4.68,4.62,5,1.31.17,2.62.29,3.92.44a13.89,13.89,0,0,0,1.18.83,16.77,16.77,0,0,0,3.22,1.78,17.63,17.63,0,0,0,5.08,1.21q10.72.93,21.45.93V56.82q-11.44,0-22.92-1.07a17.89,17.89,0,0,1-6-1.63,11.44,11.44,0,0,1-4-3l-.45-.56a21.07,21.07,0,0,0,9.32,2.57q12,.78,24.1.77v-5.7q-4.68,0-9.36-.17C86.93,48,85.91,47.9,84.88,47.85Z" transform="translate(-4.62 -5.23)" fill="#d99c24"/><path d="M77.76,13.44l-.42-.95s0-.16,0-.42a4.29,4.29,0,0,1-.22.37l0,.05.88,1.72.28.53a37.4,37.4,0,0,0-3,2.64c4.91,7.54,9.38,17,13.36,24.74a288.88,288.88,0,0,0-10.5-28Z" transform="translate(-4.62 -5.23)" fill="#db8f1b"/><path d="M116.72,14.21l.91-1.72,0-.06c0-.06-.1-.18-.24-.4,0,.3-.06.46-.06.46l-.39.94c-.09.2-.18.44-.3.71C115,17.94,111,28,106.12,42.12c3.95-7.79,8.44-17.2,13.32-24.74a37.4,37.4,0,0,0-3-2.64Z" transform="translate(-4.62 -5.23)" fill="#db8f1b"/><path d="M97.31,5.23c-13.37.74-18.83,5.62-20,6.83a2.18,2.18,0,0,1-.26.31l0,.07a4.29,4.29,0,0,0,.22-.37c0,.26,0,.42,0,.42l.42.95,0,.77s.36-.11.32-.08a288.88,288.88,0,0,1,10.5,28c-4-7.79-8.45-17.2-13.36-24.74a37.4,37.4,0,0,1,3-2.64l-.28-.53c-1,.58-1.9,1.16-2.79,1.81A33.8,33.8,0,0,0,60.48,45.29a2.08,2.08,0,0,0,0,.25c1.59.22,3.17.42,4.75.61l.92.11c1,.13,2,.27,3.07.38,1.88.21,3.76.36,5.64.53,1.25.11,2.49.24,3.73.33,2.1.15,4.19.25,6.29.35,1,0,2.05.13,3.08.17q4.68.16,9.36.17l26.89-1.55L97.32,44.9Z" transform="translate(-4.62 -5.23)" fill="#e5ab40"/><path d="M117.59,12.43l0-.06s-.09-.12-.28-.34C117.49,12.25,117.56,12.37,117.59,12.43Z" transform="translate(-4.62 -5.23)" fill="#d99c24"/><path d="M119.5,16c-.88-.64-1.83-1.23-2.78-1.81l-.29.53a37.4,37.4,0,0,1,3,2.64c-4.88,7.54-9.37,17-13.32,24.74C111,28,115,17.94,116.6,14.14l.37.2-.07-.91.39-.94s0-.16.06-.46c-1.26-1.25-6.73-6.07-20-6.8h0v43q4.67,0,9.35-.17c1,0,2.07-.12,3.1-.17,2.09-.1,4.18-.2,6.28-.35,1.24-.09,2.48-.22,3.72-.33,1.89-.17,3.77-.32,5.65-.53,1-.11,2.08-.26,3.12-.38l.91-.12c1.57-.19,3.15-.38,4.72-.6a2.11,2.11,0,0,0,0-.25A33.93,33.93,0,0,0,119.5,16Z" transform="translate(-4.62 -5.23)" fill="#d99c24"/><path d="M135.41,45.38l-1.24.16c-1.57.22-3.15.41-4.72.6l-.91.12c-1,.13-2.08.27-3.12.38-1.88.21-3.76.36-5.65.53-1.24.11-2.48.24-3.72.33-2.1.15-4.19.25-6.28.35-1,0-2.06.13-3.1.17q-4.68.16-9.35.17v5.7q11.94,0,23.89-.76a20.3,20.3,0,0,0,9.54-2.76l-.84,1a11.85,11.85,0,0,1-3.84,2.76,17.84,17.84,0,0,1-6,1.65q-11.36,1-22.71,1v3.26h0q10.64,0,21.29-.91A18.18,18.18,0,0,0,123.45,58a17,17,0,0,0,4-2.2c.23-.17.49-.31.71-.49,1.34-.16,2.69-.29,4-.46,2.82-.36,4.9-2.64,4.63-5-.15-1.26-.29-2.52-.44-3.79Z" transform="translate(-4.62 -5.23)" fill="#d99c24"/><path d="M84.88,47.85c-2.1-.1-4.19-.2-6.29-.35-1.24-.09-2.48-.22-3.73-.33-1.88-.17-3.76-.32-5.64-.53-1-.11-2-.25-3.07-.37l-.92-.12c-1.58-.19-3.16-.39-4.75-.61l-1.26-.16-.94.68c-.14,1.27-.29,2.53-.43,3.79-.27,2.4,1.81,4.68,4.62,5,1.31.17,2.62.29,3.92.44a13.89,13.89,0,0,0,1.18.83,16.77,16.77,0,0,0,3.22,1.78,17.63,17.63,0,0,0,5.08,1.21q10.72.93,21.45.93V56.82q-11.44,0-22.92-1.07a17.89,17.89,0,0,1-6-1.63,11.44,11.44,0,0,1-4-3l-.45-.56a21.07,21.07,0,0,0,9.32,2.57q12,.78,24.1.77v-5.7q-4.68,0-9.36-.17C86.93,48,85.91,47.9,84.88,47.85Z" transform="translate(-4.62 -5.23)" fill="#d99c24"/><path d="M77.76,13.44l-.42-.95s0-.16,0-.42a4.29,4.29,0,0,1-.22.37l0,.05.88,1.72.28.53a37.4,37.4,0,0,0-3,2.64c4.91,7.54,9.38,17,13.36,24.74a288.88,288.88,0,0,0-10.5-28Z" transform="translate(-4.62 -5.23)" fill="#db8f1b"/><path d="M116.72,14.21l.91-1.72,0-.06c0-.06-.1-.18-.24-.4,0,.3-.06.46-.06.46l-.39.94c-.09.2-.18.44-.3.71C115,17.94,111,28,106.12,42.12c3.95-7.79,8.44-17.2,13.32-24.74a37.4,37.4,0,0,0-3-2.64Z" transform="translate(-4.62 -5.23)" fill="#db8f1b"/><path d="M97.31,5.23c-13.37.74-18.83,5.62-20,6.83a2.18,2.18,0,0,1-.26.31l0,.07a4.29,4.29,0,0,0,.22-.37c0,.26,0,.42,0,.42l.42.95,0,.77s.36-.11.32-.08a288.88,288.88,0,0,1,10.5,28c-4-7.79-8.45-17.2-13.36-24.74a37.4,37.4,0,0,1,3-2.64l-.28-.53c-1,.58-1.9,1.16-2.79,1.81A33.8,33.8,0,0,0,60.48,45.29a2.08,2.08,0,0,0,0,.25c1.59.22,3.17.42,4.75.61l.92.11c1,.13,2,.27,3.07.38,1.88.21,3.76.36,5.64.53,1.25.11,2.49.24,3.73.33,2.1.15,4.19.25,6.29.35,1,0,2.05.13,3.08.17q4.68.16,9.36.17l26.89-1.55L97.32,44.9Z" transform="translate(-4.62 -5.23)" fill="#e5ab40"/></g></g></svg>